# xmcd
#
# Track frame offsets: 
#        150
#        13990
#        22997
#        31575
#        41945
#        56954
#        70056
#        80339
#        94092
#        105311
#        115245
#        123916
#        131946
#        141415
#        152104
#        162377
#        174647
#        197890
#        213463
#        227459
#        248772
#        265588
#        276024
#        291432
#
# Disc length: 4199 seconds
#
# Revision: 0
# Processed by: cddbd v1.5.1PL0 Copyright (c) Steve Scherf et al.
# Submitted via: ExactAudioCopy v0.95a5
#
DISCID=5c106518
DTITLE=Johnny Young - Back to Chicago
DYEAR=1900
DGENRE=Blues
TTITLE0=Little Girl
TTITLE1=One More Time
TTITLE2=Humpty Dumpty
TTITLE3=I Got It
TTITLE4=Whoop It Up
TTITLE5=All My Money Gone
TTITLE6=Prison Bound
TTITLE7=Bad Blood
TTITLE8=Let Me Ride Your Mule
TTITLE9=Meet Me In The Bottom
TTITLE10=Money Taking Woman
TTITLE11=I Got To Find That Woman
TTITLE12=You Got Your Business
TTITLE13=I'm Leaving Baby
TTITLE14=My Baby Walked Out In 1954
TTITLE15=You Make Me Feel So Good
TTITLE16=Back To Chicago
TTITLE17=Tired Of Your Smiling
TTITLE18=Moaning And Groaning
TTITLE19=Heard My Doorbell Ring
TTITLE20=My Trainfare Out Of Town
TTITLE21=Lula Mae
TTITLE22=Jackson Bound
TTITLE23=Walking Slow
EXTD=
EXTT0=
EXTT1=
EXTT2=
EXTT3=
EXTT4=
EXTT5=
EXTT6=
EXTT7=
EXTT8=
EXTT9=
EXTT10=
EXTT11=
EXTT12=
EXTT13=
EXTT14=
EXTT15=
EXTT16=
EXTT17=
EXTT18=
EXTT19=
EXTT20=
EXTT21=
EXTT22=
EXTT23=
PLAYORDER=
